<svg width="24" height="24" viewBox="0 0 24 24" fill="none" xmlns="http://www.w3.org/2000/svg">
<path d="M2.88 7.88L4.42 9.42C4.15 10.23 4 11.1 4 12C4 16.41 7.59 20 12 20C16.41 20 20 16.41 20 12C20 7.59 16.41 4 12 4C11.1 4 10.23 4.15 9.42 4.42L7.89 2.89C9.15 2.32 10.54 2 12 2C17.52 2 22 6.48 22 12C22 17.52 17.52 22 12 22C6.48 22 2 17.52 2 12C2 10.53 2.32 9.14 2.88 7.88ZM7 5.5C7 6.33 6.33 7 5.5 7C4.67 7 4 6.33 4 5.5C4 4.67 4.67 4 5.5 4C6.33 4 7 4.67 7 5.5Z" fill="#00A76F"/>
<path d="M12.7957 8.41C12.9351 8.41 13.0561 8.45033 13.1587 8.531C13.2687 8.61167 13.3421 8.718 13.3787 8.85L15.5787 16H13.8627L12.3117 10.423C12.2824 10.2983 12.2531 10.1737 12.2237 10.049C12.1944 9.917 12.1687 9.79233 12.1467 9.675H11.8497C11.8277 9.79233 11.8021 9.917 11.7727 10.049C11.7507 10.1737 11.7214 10.2983 11.6847 10.423L10.1337 16H8.40674L10.6177 8.85C10.6544 8.718 10.7241 8.61167 10.8267 8.531C10.9367 8.45033 11.0614 8.41 11.2007 8.41H12.7957ZM13.9617 12.733V13.998H10.0237V12.733H13.9617Z" fill="#00A76F"/>
</svg>
