<svg width="24" height="24" viewBox="0 0 24 24" fill="none" xmlns="http://www.w3.org/2000/svg">
<path d="M20 14.571C20 18.753 16.336 22 12 22C7.664 22 4 18.753 4 14.571C4 12 5.305 9.452 6.716 7.423C8.146 5.368 9.792 3.697 10.678 2.855M20 14.571L10.678 2.855M20 14.571C20 12 18.695 9.452 17.284 7.423C15.854 5.368 14.208 3.697 13.322 2.855C12.966 2.51465 12.4925 2.32471 12 2.32471C11.5075 2.32471 11.034 2.51465 10.678 2.855" stroke="#00A76F" stroke-width="2"/>
<path d="M12 18C10.9391 18 9.92172 17.5786 9.17157 16.8284C8.42143 16.0783 8 15.0609 8 14" stroke="#00A76F" stroke-width="2" stroke-linecap="round"/>
</svg>
