<svg width="24" height="24" viewBox="0 0 24 24" fill="none" xmlns="http://www.w3.org/2000/svg">
<path d="M2.88 7.88L4.42 9.42C4.15 10.23 4 11.1 4 12C4 16.41 7.59 20 12 20C16.41 20 20 16.41 20 12C20 7.59 16.41 4 12 4C11.1 4 10.23 4.15 9.42 4.42L7.89 2.89C9.15 2.32 10.54 2 12 2C17.52 2 22 6.48 22 12C22 17.52 17.52 22 12 22C6.48 22 2 17.52 2 12C2 10.53 2.32 9.14 2.88 7.88ZM7 5.5C7 6.33 6.33 7 5.5 7C4.67 7 4 6.33 4 5.5C4 4.67 4.67 4 5.5 4C6.33 4 7 4.67 7 5.5Z" fill="#00A76F"/>
<path d="M15.5033 8.41C15.8993 8.41 16.1046 8.61533 16.1193 9.026L16.4053 16H14.8543L14.6013 9.708H14.4033L13.1823 14.438C13.1163 14.79 12.8963 14.966 12.5223 14.966H11.4663C11.0923 14.966 10.865 14.79 10.7843 14.438L9.56329 9.708H9.37629L9.14529 16H7.58329L7.86929 9.026C7.88395 8.61533 8.09295 8.41 8.49629 8.41H10.0693C10.4286 8.41 10.6486 8.58967 10.7293 8.949L11.7083 12.766C11.7523 12.942 11.789 13.1217 11.8183 13.305C11.8476 13.481 11.8806 13.6607 11.9173 13.844H12.0603C12.097 13.6607 12.13 13.481 12.1593 13.305C12.196 13.1217 12.2326 12.9383 12.2693 12.755L13.2373 8.949C13.3106 8.58967 13.5306 8.41 13.8973 8.41H15.5033Z" fill="#00A76F"/>
</svg>
